<svg id="svg4871" xmlns="http://www.w3.org/2000/svg" viewBox="0 0 1588.2 847"><defs><style>.cls-1,.cls-2,.cls-3,.cls-4,.cls-6{fill:#fff;}.cls-1,.cls-11,.cls-2{stroke:#1a1c1b;}.cls-1,.cls-11{stroke-linejoin:bevel;stroke-width:3px;}.cls-3{stroke:#000;stroke-miterlimit:10;}.cls-5{fill:red;}.cls-6,.cls-8{isolation:isolate;}.cls-6{font-size:72px;font-family:Arial-BoldMT, Arial;font-weight:700;}.cls-7,.cls-8,.cls-9{fill:#bc0808;}.cls-8,.cls-9{stroke:#fff;}.cls-8{stroke-width:0.79px;opacity:0.99;}.cls-10{fill:#c4c1bc;stroke:#747b81;stroke-width:1.12px;}.cls-11{fill:#485053;}</style></defs><title>snes-black</title><g id="layer1"><g id="path4944"><path d="M199,7.9v.2C88.39,12.4,0,103.5,0,215.2c0,114.5,92.8,207.3,207.3,207.3a206.14,206.14,0,0,0,115.3-35,93.74,93.74,0,0,1,13.4-7.9c5.6-2.8,12.5-4.7,16.4-4.7h262.4c3.9,0,10.8,1.9,16.4,4.7a85.23,85.23,0,0,1,13.4,7.9,206.38,206.38,0,0,0,115.3,35c114.5,0,207.3-92.8,207.3-207.3,0-111.7-88.4-202.8-199-207.2V7.8H199Z"/></g><g id="path5631"><path d="M652.79,7.2h114.9c3.8.1,7.5.3,11.3.6,3.5.3,6.8.6,10.4,1.1s6.6.8,9.9,1.4c2.6.5,5.2,1,7.8,1.7s5.3,1.4,7.9,2.2c2.2.6,4.3,1.3,6.4,2,3.7,1.2,7.9,2.7,11,3.8,1.7.6,3,1.1,4.9,1.9s4.4,1.8,6.5,2.8,4.4,2,6.5,3.1,4,2,6,3.1c.9.5,1.8,1,2.7,1.4.6.3,1.3.7,1.9,1a8.79,8.79,0,0,0,1,.5l.7-5.5a3.15,3.15,0,0,0-1.7-1.7c-1.1-.7-2.2-1.3-3.2-2-1.4-.9-2.9-1.8-4.3-2.6a30.13,30.13,0,0,0-3.1-1.6c-1.2-.6-2.5-1.2-3.7-1.7l-3-1.5a23.7,23.7,0,0,0-3.3-1.5c-2.5-1-8.4-3.1-11.9-4.4-2.7-.9-4.1-1.4-5.9-2-3.3-1.1-6.2-1.7-10.3-2.8a57.67,57.67,0,0,0-6.6-1.7c-2.5-.4-4.5-.9-6.4-1.2l-2.4-.4s-1.8-.3-3.1-.4-3.5-.4-4.9-.6-2.6-.3-6-.7-7.9-.7-11.8-1c-2-.2-6.2-.4-6.2-.4H661.59l-3.5.3-2.6,1-1.7,1.3-1,1.5Z"/></g><g id="path5631-7"><path d="M314.59,7.2H199.69c-3.8.1-7.5.3-11.3.6-3.5.3-6.8.6-10.4,1.1s-6.6.8-9.9,1.4c-2.6.5-5.2,1-7.8,1.7s-5.3,1.4-7.9,2.2c-2.2.6-4.3,1.3-6.4,2-3.7,1.2-7.9,2.7-11,3.8-1.7.6-3,1.1-4.9,1.9s-4.4,1.8-6.5,2.8-4.4,2-6.5,3.1-4,2-6,3.1c-.9.5-1.8,1-2.7,1.4-.6.3-1.3.7-1.9,1a8.79,8.79,0,0,1-1,.5l-.7-5.5a3.15,3.15,0,0,1,1.7-1.7c1.1-.7,2.2-1.3,3.2-2,1.4-.9,2.9-1.8,4.3-2.6a30.13,30.13,0,0,1,3.1-1.6c1.2-.6,2.5-1.2,3.7-1.7l3-1.5a32,32,0,0,1,3.3-1.5c2.5-1,8.4-3.1,11.9-4.4,2.7-.9,4.1-1.4,5.9-2,3.3-1.1,6.2-1.7,10.3-2.8a57.67,57.67,0,0,1,6.6-1.7c2.5-.4,4.5-.9,6.4-1.2l2.4-.4s1.8-.3,3.1-.4,3.5-.4,4.9-.6,2.6-.3,6-.7,7.9-.7,11.8-1c2-.2,6.2-.4,6.2-.4h103.2l3.5.3,2.6,1,1.7,1.3,1,1.5Z"/></g><path id="rect4752-7" class="cls-1" d="M188.69,134.3a8.17,8.17,0,0,0-8.2,8.2v47.2h-47.2a8.17,8.17,0,0,0-8.2,8.2v34.6a8.17,8.17,0,0,0,8.2,8.2h47.2v47.2a8.17,8.17,0,0,0,8.2,8.2h34.6a8.17,8.17,0,0,0,8.2-8.2V240.7h47.2a8.17,8.17,0,0,0,8.2-8.2V197.9a8.17,8.17,0,0,0-8.2-8.2h-47.2V142.5a8.17,8.17,0,0,0-8.2-8.2Z"/><path id="path6000" class="cls-2" d="M245.79,231.7v-33l32.6,16.5Z"/><path id="path6000-8" class="cls-2" d="M166.19,231.7v-33l-32.6,16.5Z"/><path id="path6000-5" class="cls-2" d="M222.49,175.4h-33L206,142.8Z"/><path id="path6000-5-9" class="cls-2" d="M222.49,255h-33L206,287.6Z"/><path id="path6149" class="cls-3" d="M798.79,142.6A36.8,36.8,0,1,1,762,105.8,36.77,36.77,0,0,1,798.79,142.6Z"/><path id="path6149-3" class="cls-3" d="M706.59,214.3a36.8,36.8,0,1,1-36.8-36.8A36.83,36.83,0,0,1,706.59,214.3Z"/><path id="path6149-1" class="cls-3" d="M890.49,213.3a36.8,36.8,0,1,1-36.8-36.8A36.77,36.77,0,0,1,890.49,213.3Z"/><path id="path6149-3-8" class="cls-3" d="M798.29,285.1a36.8,36.8,0,1,1-36.8-36.8A36.77,36.77,0,0,1,798.29,285.1Z"/><path id="rect6211-4" class="cls-4" d="M469,248l40.7-30.6a15.28,15.28,0,0,1,21.4,3h0a15.28,15.28,0,0,1-3,21.4l-40.7,30.6a15.28,15.28,0,0,1-21.4-3h0A15.21,15.21,0,0,1,469,248Z"/><path id="rect6211-4-4" class="cls-4" d="M363.69,248l40.7-30.6a15.28,15.28,0,0,1,21.4,3h0a15.28,15.28,0,0,1-3,21.4l-40.7,30.6a15.28,15.28,0,0,1-21.4-3h0A15.21,15.21,0,0,1,363.69,248Z"/><g id="g3182"><path id="path4944-2" class="cls-5" d="M199.07,432.35v.2a207.29,207.29,0,0,0-199,207.2c0,114.5,92.8,207.3,207.3,207.3a206.14,206.14,0,0,0,115.3-35,93.74,93.74,0,0,1,13.4-7.9c5.6-2.8,12.5-4.7,16.4-4.7h262.4c3.9,0,10.8,1.9,16.4,4.7a85.23,85.23,0,0,1,13.4,7.9,206.38,206.38,0,0,0,115.3,35c114.5,0,207.3-92.8,207.3-207.3,0-111.7-88.4-202.8-199-207.2v-.2H199.07Z"/><path id="path5631-77" class="cls-5" d="M652.77,431.65h114.9c3.8.1,7.5.3,11.3.6,3.5.3,6.8.6,10.4,1.1s6.6.8,9.9,1.4c2.6.5,5.2,1,7.8,1.7s5.3,1.4,7.9,2.2c2.2.6,4.3,1.3,6.4,2,3.7,1.2,7.9,2.7,11,3.8,1.7.6,3,1.1,4.9,1.9s4.4,1.8,6.5,2.8,4.4,2,6.5,3.1,4,2,6,3.1c.9.5,1.8,1,2.7,1.4.6.3,1.3.7,1.9,1a8.79,8.79,0,0,0,1,.5l.7-5.5a3.15,3.15,0,0,0-1.7-1.7c-1.1-.7-2.2-1.3-3.2-2-1.4-.9-2.9-1.8-4.3-2.6a30.13,30.13,0,0,0-3.1-1.6c-1.2-.6-2.5-1.2-3.7-1.7l-3-1.5a32,32,0,0,0-3.3-1.5c-2.5-1-8.4-3.1-11.9-4.4-2.7-.9-4.1-1.4-5.9-2-3.3-1.1-6.2-1.7-10.3-2.8a57.67,57.67,0,0,0-6.6-1.7c-2.5-.4-4.5-.9-6.4-1.2l-2.4-.4s-1.8-.3-3.1-.4-3.5-.4-4.9-.6-2.6-.3-6-.7-7.9-.7-11.8-1c-2-.2-6.2-.4-6.2-.4H661.67l-3.5.3-2.6,1-1.7,1.3-1,1.5Z"/><path id="path5631-7-3" class="cls-5" d="M314.57,431.65H199.67c-3.8.1-7.5.3-11.3.6-3.5.3-6.8.6-10.4,1.1s-6.6.8-9.9,1.4c-2.6.5-5.2,1-7.8,1.7s-5.3,1.4-7.9,2.2c-2.2.6-4.3,1.3-6.4,2-3.7,1.2-7.9,2.7-11,3.8-1.7.6-3,1.1-4.9,1.9s-4.4,1.8-6.5,2.8-4.4,2-6.5,3.1-4,2-6,3.1c-.9.5-1.8,1-2.7,1.4-.6.3-1.3.7-1.9,1a8.79,8.79,0,0,1-1,.5l-.7-5.5a3.15,3.15,0,0,1,1.7-1.7c1.1-.7,2.2-1.3,3.2-2,1.4-.9,2.9-1.8,4.3-2.6a30.13,30.13,0,0,1,3.1-1.6c1.2-.6,2.5-1.2,3.7-1.7l3-1.5a32,32,0,0,1,3.3-1.5c2.5-1,8.4-3.1,11.9-4.4,2.7-.9,4.1-1.4,5.9-2,3.3-1.1,6.2-1.7,10.3-2.8a57.67,57.67,0,0,1,6.6-1.7c2.5-.4,4.5-.9,6.4-1.2l2.4-.4s1.8-.3,3.1-.4,3.5-.4,4.9-.6,2.6-.3,6-.7,7.9-.7,11.8-1c2-.2,6.2-.4,6.2-.4h103.1l3.5.3,2.6,1,1.7,1.3,1,1.5Z"/></g><text class="cls-6" transform="translate(195.74 661.99)">DISCONECTED</text><path id="path5631-7-4" class="cls-7" d="M1177.29,7.2h-114.9c-3.8.1-7.5.3-11.3.6-3.5.3-6.8.6-10.4,1.1s-6.6.8-9.9,1.4c-2.6.5-5.2,1-7.8,1.7s-5.3,1.4-7.9,2.2c-2.2.6-4.3,1.3-6.4,2-3.7,1.2-7.9,2.7-11,3.8-1.7.6-3,1.1-4.9,1.9s-4.4,1.8-6.5,2.8-4.4,2-6.5,3.1-4,2-6,3.1c-.9.5-1.8,1-2.7,1.4-.6.3-1.3.7-1.9,1a8.79,8.79,0,0,1-1,.5l-.7-5.5a3.15,3.15,0,0,1,1.7-1.7c1.1-.7,2.2-1.3,3.2-2,1.4-.9,2.9-1.8,4.3-2.6a30.13,30.13,0,0,1,3.1-1.6c1.2-.6,2.5-1.2,3.7-1.7l3-1.5a23.7,23.7,0,0,1,3.3-1.5c2.5-1,8.4-3.1,11.9-4.4,2.7-.9,4.1-1.4,5.9-2,3.3-1.1,6.2-1.7,10.3-2.8a57.67,57.67,0,0,1,6.6-1.7c2.5-.4,4.5-.9,6.4-1.2l2.4-.4s1.8-.3,3.1-.4,3.5-.4,4.9-.6,2.6-.3,6-.7,7.9-.7,11.8-1c2-.2,6.2-.4,6.2-.4h103.1l3.5.3,2.6,1,1.7,1.3,1,1.5Z"/><path id="rect6211-4-4-2" class="cls-7" d="M1183.49,33.7l40.7-30.6a15.28,15.28,0,0,1,21.4,3h0a15.28,15.28,0,0,1-3,21.4l-40.7,30.6a15.28,15.28,0,0,1-21.4-3h0A15.3,15.3,0,0,1,1183.49,33.7Z"/><path id="path6149-4" class="cls-8" d="M1322.89,37.3A36.8,36.8,0,1,1,1286.09.5,36.77,36.77,0,0,1,1322.89,37.3Z"/><path id="path6000-5-0" class="cls-9" d="M1356.89,33.1h-33L1340.39.5Z"/><g id="g3172"><path id="path5695-4" class="cls-10" d="M1472.78.58a114.8,114.8,0,1,0,114.9,114.8A114.8,114.8,0,0,0,1472.78.58Zm0,42.4,16.5,32.6h-33l16.5-32.6ZM1433,98.88v33l-32.6-16.5,32.6-16.5Zm79.6,0,32.6,16.5-32.6,16.5v-33Zm-23.3,56.3-16.5,32.6-16.5-32.6Z"/><path id="rect4752-7-2" class="cls-11" d="M1455.48,34.48a8.17,8.17,0,0,0-8.2,8.2v47.2h-47.2a8.17,8.17,0,0,0-8.2,8.2v34.6a8.17,8.17,0,0,0,8.2,8.2h47.2v47.2a8.17,8.17,0,0,0,8.2,8.2h34.6a8.17,8.17,0,0,0,8.2-8.2v-47.2h47.2a8.17,8.17,0,0,0,8.2-8.2V98.08a8.17,8.17,0,0,0-8.2-8.2h-47.2V42.68a8.17,8.17,0,0,0-8.2-8.2Zm17.3,8.5,16.5,32.6h-33l16.5-32.6ZM1433,98.88v33l-32.6-16.5,32.6-16.5Zm79.7,0,32.6,16.5-32.6,16.5v-33Zm-23.4,56.3-16.5,32.6-16.5-32.6Z"/></g></g></svg>