<svg xmlns="http://www.w3.org/2000/svg" viewBox="0 0 900 250"><defs><style>.cls-1{fill:#231f20;}.cls-2,.cls-3,.cls-4,.cls-5{fill:#fff;stroke:#231f20;stroke-miterlimit:10;}.cls-3{stroke-width:0.96px;}.cls-4{stroke-width:0.78px;}.cls-5{stroke-width:0.82px;}</style></defs><g id="Layer_1" data-name="Layer 1"><rect class="cls-1" width="900" height="250" rx="32.57"/></g><g id="Layer_2" data-name="Layer 2"><rect class="cls-2" x="20" y="19.35" width="87.1" height="211.29" rx="12"/><rect class="cls-2" x="792.9" y="19.35" width="87.1" height="211.29" rx="12"/><path class="cls-3" d="M1061.66,1149.44h-50.07v-50.07a11.57,11.57,0,0,0-11.54-11.53H967.3a11.57,11.57,0,0,0-11.53,11.53v50.07H905.7A11.58,11.58,0,0,0,894.16,1161v32.75a11.58,11.58,0,0,0,11.54,11.54h50.07v50.07a11.57,11.57,0,0,0,11.53,11.53h32.75a11.57,11.57,0,0,0,11.54-11.53v-50.07h50.07a11.57,11.57,0,0,0,11.53-11.54V1161A11.57,11.57,0,0,0,1061.66,1149.44Z" transform="translate(-752 -1052.35)"/><circle class="cls-4" cx="566.1" cy="125" r="30"/><circle class="cls-4" cx="735.26" cy="125" r="30"/><circle class="cls-4" cx="650.68" cy="60.42" r="30"/><circle class="cls-4" cx="650.68" cy="189.58" r="30"/><rect class="cls-5" x="1173.78" y="1168.14" width="72.38" height="18.42" rx="9.21" transform="translate(2146.06 101.94) rotate(135)"/><rect class="cls-5" x="1103.78" y="1168.14" width="72.38" height="18.42" rx="9.21" transform="translate(2026.56 151.44) rotate(135)"/></g><g id="Layer_3_copy" data-name="Layer 3 copy"><path class="cls-1" d="M1305,1189.13l9.45-12.15q.1-.09,0-.24l-9.45-12.09a1.55,1.55,0,0,1-.36-.94,1.74,1.74,0,0,1,.19-.91,2,2,0,0,1,.62-.7,1.61,1.61,0,0,1,.94-.29h3.36a1.71,1.71,0,0,1,1.39.73l7.15,9.59c.07.07.16.07.29,0l7.15-9.59a1.56,1.56,0,0,1,1.39-.73h3.36a1.59,1.59,0,0,1,.94.29,2.1,2.1,0,0,1,.63.7,1.63,1.63,0,0,1,.16.91,1.79,1.79,0,0,1-.38.94l-9.46,12.09q-.09.15,0,.24l9.46,12.15a1.77,1.77,0,0,1,.38.91,1.68,1.68,0,0,1-.16.91,1.85,1.85,0,0,1-.63.7,1.72,1.72,0,0,1-.94.26h-3.36a1.52,1.52,0,0,1-1.39-.67l-7.15-9.6c-.13-.13-.22-.13-.29,0l-7.15,9.6a1.68,1.68,0,0,1-1.39.67h-3.36a1.68,1.68,0,0,1-1.56-1,1.8,1.8,0,0,1-.19-.91A1.52,1.52,0,0,1,1305,1189.13Z" transform="translate(-752 -1052.35)"/><path class="cls-1" d="M1390.08,1097.73h3.31a1.66,1.66,0,0,1,1.4.72l6.88,9.5q.11.24.24,0l6.89-9.5a1.58,1.58,0,0,1,1.39-.72h3.32a1.71,1.71,0,0,1,.93.26,1.87,1.87,0,0,1,.63.68,1.75,1.75,0,0,1,.19.88,1.63,1.63,0,0,1-.36.91l-9.79,13.11v12.53a1.62,1.62,0,0,1-.53,1.22,1.67,1.67,0,0,1-1.19.51h-3.19a1.72,1.72,0,0,1-1.72-1.73v-12.39a.2.2,0,0,0,0-.14l-9.74-13.11a1.63,1.63,0,0,1-.36-.91,1.65,1.65,0,0,1,.19-.88,1.78,1.78,0,0,1,.63-.68A1.71,1.71,0,0,1,1390.08,1097.73Z" transform="translate(-752 -1052.35)"/><path class="cls-1" d="M1390,1254.26v-26.64a1.71,1.71,0,0,1,.5-1.2,1.64,1.64,0,0,1,1.22-.53H1405a10,10,0,0,1,6.8,2.45,7.59,7.59,0,0,1,2.88,6.09,7,7,0,0,1-1.87,5.09,9.37,9.37,0,0,1,3,3.36,8.86,8.86,0,0,1,1,4.08,8.18,8.18,0,0,1-3,6.43,10.41,10.41,0,0,1-7.09,2.6h-15a1.72,1.72,0,0,1-1.72-1.73Zm6.62-17.14c0,.13.05.19.15.19h8.34a3.16,3.16,0,0,0,2.17-.82,2.73,2.73,0,0,0,.81-2,2.56,2.56,0,0,0-.86-1.93,2.85,2.85,0,0,0-2.12-.78h-8.34a.13.13,0,0,0-.15.15Zm0,12.77c0,.13.05.19.15.19h10a3.56,3.56,0,0,0,2.45-.95,3.19,3.19,0,0,0,1-2.34,3.61,3.61,0,0,0-1-2.52,3.27,3.27,0,0,0-2.45-1h-10c-.1,0-.15,0-.15.14Z" transform="translate(-752 -1052.35)"/><path class="cls-1" d="M1472.51,1189.05l10.13-26.59a1.75,1.75,0,0,1,.62-.84,1.6,1.6,0,0,1,1-.31h4.47a1.6,1.6,0,0,1,1,.31,1.82,1.82,0,0,1,.62.84l10.13,26.59a1.63,1.63,0,0,1-.19,1.61,1.69,1.69,0,0,1-1.44.75h-3.08a1.57,1.57,0,0,1-1.63-1.16l-2.11-5.66a.12.12,0,0,0-.14-.14H1481.1a.12.12,0,0,0-.14.14l-2.11,5.66a1.55,1.55,0,0,1-1.59,1.16h-3.12a1.66,1.66,0,0,1-1.44-.75A1.63,1.63,0,0,1,1472.51,1189.05Zm10.9-10.51h6.14c.16,0,.21-.06.14-.19l-3.07-8.45a.18.18,0,0,0-.17-.09.16.16,0,0,0-.16.09l-3.08,8.4C1483.12,1178.46,1483.18,1178.54,1483.41,1178.54Z" transform="translate(-752 -1052.35)"/><path class="cls-1" d="M1576.28,1195V1168.4a1.71,1.71,0,0,1,.51-1.2,1.62,1.62,0,0,1,1.22-.53h13.35a9.77,9.77,0,0,1,7,2.69,8.68,8.68,0,0,1,2.84,6.53,8.12,8.12,0,0,1-.82,3.65,8.21,8.21,0,0,1-2.54,3.17,11,11,0,0,1-3.8,1.87q-.24,0-.09.24l7.15,9.17a1.63,1.63,0,0,1,.36.91,1.8,1.8,0,0,1-.19.91,1.77,1.77,0,0,1-.63.7,1.71,1.71,0,0,1-.93.26h-3.41a1.67,1.67,0,0,1-1.39-.67l-8.69-11.47c-.06-.07-.11-.1-.14-.1h-3c-.09,0-.14.07-.14.19V1195a1.72,1.72,0,0,1-1.73,1.73H1578a1.72,1.72,0,0,1-1.73-1.73Zm6.63-16c0,.13,0,.19.14.19h8.31a3.11,3.11,0,0,0,2.3-1,3.2,3.2,0,0,0,.91-2.36,3.27,3.27,0,0,0-.91-2.42,3.13,3.13,0,0,0-2.3-.92h-8.31a.13.13,0,0,0-.14.14Z" transform="translate(-752 -1052.35)"/><path class="cls-1" d="M803.72,1195V1168.4a1.7,1.7,0,0,1,.5-1.2,1.64,1.64,0,0,1,1.22-.53h3.17a1.66,1.66,0,0,1,1.23.53,1.74,1.74,0,0,1,.5,1.2v22.27c0,.13.06.2.19.2h16.32a1.71,1.71,0,0,1,1.73,1.72V1195a1.71,1.71,0,0,1-1.73,1.73H805.44a1.71,1.71,0,0,1-1.72-1.73Z" transform="translate(-752 -1052.35)"/></g></svg>